<svg xmlns="http://www.w3.org/2000/svg" width="120" height="120.004" viewBox="0 0 120 120.004"><defs><style>.a{fill:#f5f5f5;}.b{fill:#3da8c0;}</style></defs><g transform="translate(1)"><path class="a" d="M30.214,83.968l-17.9,9.766a16.089,16.089,0,0,0-2.873,2.045,59.964,59.964,0,0,0,77.045.2,15.884,15.884,0,0,0-3.156-2.115L64.155,84.279a7.311,7.311,0,0,1-4.042-6.539V70.218a28.956,28.956,0,0,0,1.814-2.332,44.113,44.113,0,0,0,5.959-12.01,6.021,6.021,0,0,0,4.27-5.729V42.119a5.994,5.994,0,0,0-2.006-4.449V26.063S72.535,8,48.074,8,26,26.063,26,26.063V37.669a5.986,5.986,0,0,0-2.006,4.449v8.029A6.019,6.019,0,0,0,26.767,55.2a39.843,39.843,0,0,0,7.259,15.019v7.336A7.319,7.319,0,0,1,30.214,83.968Z" transform="translate(11.931 10.115)"/><g transform="translate(0 0)"><path class="b" d="M61.028.009A59.965,59.965,0,0,0,21.392,105.876a15.944,15.944,0,0,1,2.846-2.024l17.9-9.766a7.314,7.314,0,0,0,3.811-6.419V80.331a39.805,39.805,0,0,1-7.259-15.019,6.022,6.022,0,0,1-2.776-5.052V52.231a5.994,5.994,0,0,1,2.006-4.449V36.176S35.539,18.114,60,18.114,82.076,36.176,82.076,36.176V47.782a5.986,5.986,0,0,1,2.006,4.449V60.26a6.021,6.021,0,0,1-4.27,5.729A44.113,44.113,0,0,1,73.853,78a28.955,28.955,0,0,1-1.814,2.332v7.522a7.308,7.308,0,0,0,4.042,6.539l19.171,9.585a15.963,15.963,0,0,1,3.147,2.11A59.988,59.988,0,0,0,61.028.009Z" transform="translate(-1 0)"/></g></g></svg>